<?xml version="1.0" encoding="UTF-8" standalone="no"?>
<svg
   width="64"
   height="64"
   version="1.1"
   viewBox="0 0 16.933 16.933"
   id="svg2025"
   sodipodi:docname="brave.svg"
   xml:space="preserve"
   inkscape:version="1.2.2 (b0a8486541, 2022-12-01)"
   xmlns:inkscape="http://www.inkscape.org/namespaces/inkscape"
   xmlns:sodipodi="http://sodipodi.sourceforge.net/DTD/sodipodi-0.dtd"
   xmlns:xlink="http://www.w3.org/1999/xlink"
   xmlns="http://www.w3.org/2000/svg"
   xmlns:svg="http://www.w3.org/2000/svg"><sodipodi:namedview
     id="namedview2027"
     pagecolor="#ffffff"
     bordercolor="#666666"
     borderopacity="1.0"
     inkscape:showpageshadow="2"
     inkscape:pageopacity="0.0"
     inkscape:pagecheckerboard="0"
     inkscape:deskcolor="#d1d1d1"
     showgrid="false"
     inkscape:zoom="5.2149125"
     inkscape:cx="20.61396"
     inkscape:cy="34.228762"
     inkscape:window-width="1920"
     inkscape:window-height="1050"
     inkscape:window-x="1920"
     inkscape:window-y="0"
     inkscape:window-maximized="1"
     inkscape:current-layer="svg2025" /><defs
     id="defs2009"><linearGradient
       id="linearGradient14314"
       x1="36.586"
       x2="36.734"
       y1="11.643"
       y2="-12.581"
       gradientTransform="matrix(.61376 0 0 .61376 -14.156 11.135)"
       gradientUnits="userSpaceOnUse"><stop
         stop-color="#ebcb8b"
         offset="0"
         id="stop14310"
         style="stop-color:#2e3440;stop-opacity:1;" /><stop
         stop-color="#d08770"
         offset="1"
         id="stop14312"
         style="stop-color:#4c566a;stop-opacity:1;" /></linearGradient><filter
       id="filter1178"
       x="-0.047999482"
       y="-0.047999482"
       width="1.095999"
       height="1.095999"
       color-interpolation-filters="sRGB"><feGaussianBlur
         stdDeviation="0.30691668"
         id="feGaussianBlur1993" /></filter><linearGradient
       id="linearGradient1340"
       x1="8.355"
       x2="8.3996"
       y1="16.007"
       y2=".79375"
       gradientUnits="userSpaceOnUse"><stop
         stop-color="#e5e9f0"
         offset="0"
         id="stop1996" /><stop
         stop-color="#eceff4"
         offset="1"
         id="stop1998" /></linearGradient><linearGradient
       id="linearGradient1154"
       x1="36.586"
       x2="36.734"
       y1="11.643"
       y2="-12.581"
       gradientTransform="matrix(.61376 0 0 .61376 -14.156 11.135)"
       gradientUnits="userSpaceOnUse"><stop
         stop-color="#ebcb8b"
         offset="0"
         id="stop2001"
         style="stop-color:#b48ead;stop-opacity:1;" /><stop
         stop-color="#d08770"
         offset="1"
         id="stop2003"
         style="stop-color:#3b4252;stop-opacity:1;" /></linearGradient><filter
       id="filter2441"
       x="-0.081537857"
       y="-0.069432494"
       width="1.1630757"
       height="1.138865"
       color-interpolation-filters="sRGB"><feGaussianBlur
         stdDeviation="0.32159345"
         id="feGaussianBlur2006" /></filter><linearGradient
       inkscape:collect="always"
       xlink:href="#linearGradient1154"
       id="linearGradient5542"
       x1="1.4009948"
       y1="8.7238693"
       x2="15.035363"
       y2="8.7238693"
       gradientUnits="userSpaceOnUse"
       gradientTransform="matrix(0.84513354,0,0,0.84513354,1.8054753,-15.839925)" /><linearGradient
       inkscape:collect="always"
       xlink:href="#linearGradient14314"
       id="linearGradient13581"
       gradientUnits="userSpaceOnUse"
       gradientTransform="matrix(0.93630629,0,0,0.93630629,1.070852,-16.717554)"
       x1="1.4009948"
       y1="8.7238693"
       x2="15.035363"
       y2="8.7238693" /></defs><g
     stroke-linecap="round"
     stroke-linejoin="round"
     id="g2017"><rect
       transform="matrix(.99138 0 0 1 .072989 .0019055)"
       x=".79375"
       y=".90545"
       width="15.346"
       height="15.346"
       rx="3.0526"
       ry="3.0526"
       fill="#000000"
       filter="url(#filter1178)"
       opacity=".15"
       stroke-width="1.2489"
       style="mix-blend-mode:normal"
       id="rect2011" /><rect
       x=".92604"
       y=".92604"
       width="15.081"
       height="15.081"
       rx="3"
       ry="3"
       fill="url(#linearGradient1340)"
       stroke-width="1.2274"
       id="rect2013" /><rect
       x=".01215"
       y=".0060174"
       width="16.924"
       height="16.927"
       fill="none"
       opacity=".15"
       stroke-width="1.052"
       id="rect2015" /></g><circle
     style="fill:url(#linearGradient13581);fill-opacity:1;stroke-width:0"
     id="path4747-7"
     cx="8.765583"
     cy="-8.5493402"
     r="6.3829722"
     transform="rotate(90)" /><circle
     style="fill:url(#linearGradient5542);fill-opacity:1;stroke-width:0"
     id="path4747"
     cx="8.7509327"
     cy="-8.4670906"
     r="5.7614307"
     transform="rotate(90)" /><path
     style="fill:#e5e9f0;fill-opacity:1;stroke-width:0.0666964"
     d="m 6.4237606,10.446607 c 0.1605148,-0.05621 0.6839573,-0.326329 1.1632055,-0.6002677 0.4792484,-0.273936 0.9249204,-0.498066 0.9903819,-0.498066 0.065464,0 0.3936699,0.161232 0.7293528,0.358294 0.7544482,0.4428997 1.3510472,0.7419467 1.6001552,0.8020827 0.142498,0.03441 0.266508,6e-4 0.500223,-0.136204 0.563854,-0.330128 2.144903,-1.9630696 2.144903,-2.2153014 0,-0.099556 -0.250492,-0.045636 -1.394946,0.3002739 -0.528781,0.1598227 -1.021574,0.2905872 -1.095096,0.2905872 -0.155443,0 -0.681881,-0.2872396 -1.3449983,-0.7338694 C 9.460161,7.8411838 9.0992027,7.6233045 8.9148132,7.5299575 8.5017609,7.3208499 8.5040504,7.3200582 7.3184976,8.0819612 6.8444893,8.3865859 6.3728134,8.6674743 6.2703291,8.7061578 6.1176945,8.7637709 5.9481074,8.7363613 5.332658,8.5546063 4.2218533,8.2265624 3.6032015,8.0698311 3.5659978,8.1070348 c -0.094341,0.094343 0.8440592,1.1834765 1.5155471,1.7589855 0.4361464,0.3738057 0.8763222,0.6704627 1.008734,0.6798367 0.0229,0.0016 0.172967,-0.04303 0.3334817,-0.09925 z"
     id="path5534" /><path
     style="fill:#000000;stroke-width:0.0448197"
     id="path2158"
     d="" /></svg>
