<?xml version="1.0" encoding="UTF-8" standalone="no"?>
<svg
   width="64"
   height="64"
   version="1.1"
   viewBox="0 0 16.933 16.933"
   id="svg1632"
   sodipodi:docname="brackets.svg"
   inkscape:version="1.2.2 (b0a8486541, 2022-12-01)"
   xmlns:inkscape="http://www.inkscape.org/namespaces/inkscape"
   xmlns:sodipodi="http://sodipodi.sourceforge.net/DTD/sodipodi-0.dtd"
   xmlns="http://www.w3.org/2000/svg"
   xmlns:svg="http://www.w3.org/2000/svg">
  <sodipodi:namedview
     id="namedview1634"
     pagecolor="#ffffff"
     bordercolor="#666666"
     borderopacity="1.0"
     inkscape:showpageshadow="2"
     inkscape:pageopacity="0.0"
     inkscape:pagecheckerboard="0"
     inkscape:deskcolor="#d1d1d1"
     showgrid="false"
     inkscape:zoom="3.6875"
     inkscape:cx="25.084746"
     inkscape:cy="32.135593"
     inkscape:window-width="1920"
     inkscape:window-height="1050"
     inkscape:window-x="1920"
     inkscape:window-y="0"
     inkscape:window-maximized="1"
     inkscape:current-layer="svg1632" />
  <defs
     id="defs1608">
    <filter
       id="filter1178"
       x="-0.047999482"
       y="-0.047999482"
       width="1.095999"
       height="1.095999"
       color-interpolation-filters="sRGB">
      <feGaussianBlur
         stdDeviation="0.30691668"
         id="feGaussianBlur1587" />
    </filter>
    <linearGradient
       id="linearGradient1340"
       x1="8.6644"
       x2="8.6644"
       y1="15.931"
       y2=".79375"
       gradientUnits="userSpaceOnUse">
      <stop
         stop-color="#5e81ac"
         offset="0"
         id="stop1590" />
      <stop
         stop-color="#88c0d0"
         offset="1"
         id="stop1592" />
    </linearGradient>
    <linearGradient
       id="linearGradient1017"
       x1="8.376"
       x2="8.376"
       y1=".95163"
       y2="15.878"
       gradientUnits="userSpaceOnUse">
      <stop
         stop-color="#eceff4"
         offset="0"
         id="stop1595" />
      <stop
         stop-color="#d8dee9"
         offset="1"
         id="stop1597" />
    </linearGradient>
    <linearGradient
       id="linearGradient9142"
       x1="42.889"
       x2="42.889"
       y1="6.3975"
       y2="13.515"
       gradientUnits="userSpaceOnUse">
      <stop
         stop-color="#4c566a"
         offset="0"
         id="stop1600" />
      <stop
         stop-color="#2e3440"
         offset="1"
         id="stop1602" />
    </linearGradient>
    <filter
       id="filter9440"
       x="-0.10104513"
       y="-0.11939384"
       width="1.2020903"
       height="1.2387877"
       color-interpolation-filters="sRGB">
      <feGaussianBlur
         stdDeviation="0.35548519"
         id="feGaussianBlur1605" />
    </filter>
    <linearGradient
       id="a"
       gradientTransform="matrix(0,49.571,-49.571,0,117.97,-79.635)"
       gradientUnits="userSpaceOnUse"
       x2="1">
      <stop
         offset="0"
         stop-color="#36b5f5"
         id="stop337" />
      <stop
         offset=".53"
         stop-color="#6137f5"
         id="stop339" />
      <stop
         offset="1"
         stop-color="#5b0d6b"
         id="stop341" />
    </linearGradient>
    <linearGradient
       id="b"
       gradientTransform="matrix(0,43.843,-43.843,0,130.81,-76.713)"
       gradientUnits="userSpaceOnUse"
       x2="1">
      <stop
         offset="0"
         stop-color="#211060"
         id="stop344" />
      <stop
         offset=".51"
         stop-color="#9b32bf"
         id="stop346" />
      <stop
         offset="1"
         stop-color="#fe7a79"
         id="stop348" />
    </linearGradient>
    <filter
       style="color-interpolation-filters:sRGB;"
       inkscape:label="Color Shift"
       id="filter1950"
       x="0"
       y="0"
       width="1"
       height="1">
      <feColorMatrix
         type="hueRotate"
         values="0"
         result="color1"
         id="feColorMatrix1946" />
      <feColorMatrix
         type="saturate"
         values="0.244399"
         result="color2"
         id="feColorMatrix1948" />
    </filter>
  </defs>
  <rect
     transform="matrix(.99138 0 0 1 .072989 .0019055)"
     x=".79375"
     y=".90545"
     width="15.346"
     height="15.346"
     rx="3.0526"
     ry="3.0526"
     fill="#000000"
     filter="url(#filter1178)"
     opacity=".15"
     stroke-width="1.2489"
     style="mix-blend-mode:normal"
     id="rect1610" />
  <rect
     x=".92604"
     y=".92604"
     width="15.081"
     height="15.081"
     rx="3"
     ry="3"
     fill="url(#linearGradient1340)"
     stroke-linecap="round"
     stroke-linejoin="round"
     stroke-width="1.2274"
     id="rect1612" />
  <rect
     x=".01215"
     y=".0060174"
     width="16.924"
     height="16.927"
     fill="none"
     opacity=".15"
     stroke-linecap="round"
     stroke-linejoin="round"
     stroke-width="1.052"
     id="rect1614" />
  <g
     transform="matrix(.8 0 0 .8 1.6933 1.6933)"
     fill="url(#linearGradient1017)"
     id="g1618">
    <rect
       x=".92604"
       y=".92604"
       width="15.081"
       height="15.081"
       rx="3"
       ry="3"
       fill="url(#linearGradient1017)"
       stroke-linecap="round"
       stroke-linejoin="round"
       stroke-width="1.2274"
       id="rect1616" />
  </g>
  <g
     stroke-width="0.32543"
     transform="matrix(0.21195998,0,0,0.21195998,-17.454056,20.188237)"
     id="g355"
     style="filter:url(#filter1950)">
    <path
       d="m 96.662,-54.894 c 0,13.716 10.798,24.909 24.357,25.545 0.40353,0.0192 0.80967,0.02961 1.2178,0.02961 6.5477,0 12.519,-2.4616 17.044,-6.5086 -2.9976,1.9884 -6.5021,3.132 -10.248,3.132 -6.0905,0 -11.544,-3.021 -15.213,-7.7853 -2.8274,-3.3376 -4.6592,-8.2725 -4.7835,-13.81 -3.3e-4,-0.01432 -3.3e-4,-1.1904 0,-1.2047 0.12431,-5.5375 1.9562,-10.472 4.7832,-13.81 3.6692,-4.7646 9.1232,-7.7856 15.214,-7.7856 3.7467,0 7.2522,1.1442 10.25,3.1329 -4.502,-4.0279 -10.438,-6.4849 -16.949,-6.509 l -0.0967,-0.0013 c -14.124,0 -25.574,11.45 -25.574,25.575 z"
       fill="url(#a)"
       id="path351"
       style="fill:url(#a)" />
    <path
       d="m 113.82,-69.306 c 2.3467,-2.7704 5.3784,-4.4412 8.6897,-4.4412 7.4449,0 13.48,8.4411 13.48,18.853 0,10.4119 -6.0355,18.853 -13.48,18.853 -3.3113,0 -6.343,-1.6708 -8.6894,-4.4408 3.6689,4.7643 9.1228,7.7853 15.213,7.7853 3.746,0 7.2506,-1.1436 10.248,-3.132 5.2352,-4.683 8.5312,-11.489 8.5312,-19.066 0,-7.5757 -3.2953,-14.381 -8.5292,-19.064 -2.9979,-1.9887 -6.5034,-3.1329 -10.25,-3.1329 -6.0905,0 -11.544,3.021 -15.214,7.7856 z"
       fill="url(#b)"
       id="path353"
       style="fill:url(#b)" />
  </g>
</svg>
